<?xml version="1.0" encoding="utf-8"?>
<!-- Generator: Adobe Illustrator 16.0.0, SVG Export Plug-In . SVG Version: 6.00 Build 0)  -->
<!DOCTYPE svg PUBLIC "-//W3C//DTD SVG 1.1//EN" "http://www.w3.org/Graphics/SVG/1.1/DTD/svg11.dtd">
<svg version="1.1" id="Layer_1" xmlns="http://www.w3.org/2000/svg" xmlns:xlink="http://www.w3.org/1999/xlink" x="0px" y="0px"
	 width="820.706px" height="501px" viewBox="0 0 820.706 501" enable-background="new 0 0 820.706 501" xml:space="preserve">
<g transform="translate(0.000000,501.000000) scale(0.100000,-0.100000)">
	<path fill="#893A31" d="M4495.983,4979.001c-107.451-7.002-288.887-52.002-288.887-70.996c0-8.008,128.037-108.008,137.695-108.008
		c9.004,0,157.627-115.996,190.43-147.998c43.115-42.998,73.994-82.002,64.99-82.002c-5.791,0-158.271,92.002-216.182,131.006
		c-46.963,30.996-242.559,122.002-337.783,157.002c-51.465,18.994-73.34,25.996-160.84,50.996
		c-129.316,37.002-281.152,39.004-347.432,5c-94.57-47.998-115.81-107.002-115.81-325c0-120,3.867-170.996,20.596-279.004
		c7.08-47.002,27.656-150,37.314-185c2.578-10.996,11.582-45,19.297-75c7.724-30,30.888-107.002,51.474-170
		c115.166-357.002,287.588-655,530.791-917.002c76.563-81.992,285.029-237.998,368.672-275c21.23-8.994,28.301-27.998,10.928-27.998
		c-19.297,0-195.586,76.006-231.621,100c-7.07,5-25.732,17.002-41.816,26.006c-125.469,78.994-285.654,241.992-418.203,426.992
		c-145.4,202.002-262.5,453.008-340.342,727.002c-50.83,179.004-85.566,387.998-93.936,570
		c-5.146,104.004-10.293,129.004-27.666,128.008c-5.791,0-60.479,2.998-120.957,7.998
		c-164.063,10.996-388.604-17.002-610.576-77.002c-424.629-112.998-882.724-374.004-1354.316-772.002
		c-79.775-67.998-117.744-100.996-232.266-207.002c-9.004-7.998-37.314-35-63.047-60c-25.732-25-55.977-52.998-66.914-63.994
		c-24.453-22.002-294.033-308.008-326.201-346.006c-12.217-13.994-45.674-52.998-73.984-85
		c-128.027-147.998-406.631-502.998-422.715-538.994c-7.715-18.008,4.512-27.002,21.24-18.008c8.359,5,30.234,12.002,47.607,16.006
		c18.018,3.994,64.346,22.998,102.939,42.998c39.248,19.004,81.074,39.004,93.291,44.004c95.225,35,133.828,46.992,189.795,60
		c25.107,5,62.412,13.994,83.652,18.994c261.211,60,386.025,75,502.48,61.006c252.851-32.002,494.766-99.004,633.086-176.006
		c103.594-57.998,314.619-235.996,407.266-342.998c53.408-62.998,225.83-330.996,263.789-412.002c29.6-63.994,62.402-120,70.127-120
		c2.578,0,5.791,204.004,6.436,452.998l1.924,452.002l338.428,2.998c266.357,2.002,340.342-0.996,344.854-10
		c6.436-12.998,21.875-55.996,72.695-202.998c48.262-140.996,72.061-208.994,86.865-250c7.715-22.002,25.732-73.994,40.537-115
		c14.15-40.996,40.527-116.992,58.545-168.994c18.008-52.002,32.803-96.006,32.803-97.998c0-9.004,26.387-63.008,30.889-63.008
		c2.568,0,9.004,15,13.516,32.002c5.146,17.998,18.652,57.998,29.59,87.998c11.582,30,32.168,89.004,46.328,130
		c14.15,41.006,33.457,98.008,43.74,125c28.32,79.004,57.91,165,82.363,235c12.217,36.006,31.523,92.002,43.105,125
		s28.311,80,37.314,105c8.369,25,18.652,51.006,21.875,57.998c5.146,9.004,81.064,12.002,355.146,10l348.066-2.998l1.934-882.998
		c1.289-695.996,3.223-882.002,9.658-882.002c3.857,1.006,29.59,24.004,55.967,53.008c37.324,40.996,53.408,65.996,70.771,111.992
		c39.248,105,150.557,270,225.186,334.004c90.068,77.998,187.227,135,289.521,170c102.939,34.004,133.184,39.004,366.729,52.002
		c426.572,22.998,489.619,27.002,492.832,32.002c1.934,2.998-3.857,28.994-12.227,58.994
		c-9.004,29.004-24.443,82.998-35.381,119.004c-40.537,137.002-40.537,182.998,1.924,250
		c28.955,46.992,103.594,87.998,231.621,127.998c21.24,7.002,47.617,15.996,58.555,22.002c10.938,5,24.443,8.994,30.234,8.994
		c16.094,0,144.121,49.004,171.143,65c18.662,12.002,119.023,46.006,238.691,82.002c52.119,15.996,187.227,57.998,299.17,92.998
		c70.771,22.002,144.766,45,164.063,51.006c19.307,5.996,46.973,15,61.123,18.994c14.16,5,32.822,11.006,41.826,12.998
		c9.004,3.008,54.043,17.002,99.717,32.002c46.328,15,92.656,29.004,103.594,31.006c32.168,5,274.727,95.996,330.693,123.994
		c88.789,45,115.166,62.998,171.143,122.002c60.479,64.004,77.207,99.004,137.041,285c66.27,207.002,75.918,242.002,94.58,329.004
		c28.955,138.994,27.021,191.992-9.648,250c-25.742,40-81.074,80.996-121.611,90c-30.234,5.996-34.092,3.994-48.887-21.006
		c-9.014-15-16.738-32.998-16.738-38.994c0-9.004-10.293-53.008-39.238-161.006c-2.578-10.996-8.369-37.998-12.871-60
		c-3.848-22.002-11.582-52.998-16.084-70c-8.35-27.998-9.014-22.998-5.791,55c3.213,77.002,11.582,142.002,30.234,240
		c3.223,19.004,7.725,51.006,9.658,71.006l3.213,35.996l-66.904,42.002c-69.492,45-129.326,83.994-164.063,107.998
		c-11.592,7.002-40.537,25-64.346,39.004c-24.453,13.994-54.043,31.992-66.27,40.996c-23.164,15.996-45.039,30-67.559,44.004
		c-43.096,25.996-193.652,105.996-321.689,168.994c-34.736,17.002-237.402,112.002-257.354,121.006
		c-41.172,17.002-71.416,30-90.068,38.994c-10.293,4.004-35.391,15-54.688,23.008c-113.232,48.994-142.832,60.996-183.369,78.994
		c-24.443,11.006-55.332,24.004-67.559,27.998c-12.217,5-45.674,17.002-73.984,28.008
		c-49.541,18.994-257.354,93.994-369.941,133.994c-30.234,11.006-66.27,24.004-80.43,29.004c-14.15,5-39.883,12.998-57.9,17.998
		c-17.363,5-54.043,15.996-80.42,25c-26.377,7.998-82.998,25-125.469,35.996c-42.451,12.002-93.281,26.006-112.588,31.006
		c-177.568,50-189.795,52.998-508.271,107.998c-196.23,35-460.02,64.004-524.355,59.004
		C4611.794,4988.005,4554.528,4984.001,4495.983,4979.001z M3752.233,4486.003c169.844-86.006,335.195-203.008,448.428-317.002
		c90.078-91.006,202.031-236.006,232.275-301.006l12.861-26.992l-24.443,15c-13.516,8.994-41.826,27.998-63.057,43.994
		c-113.232,82.002-125.459,89.004-125.459,71.006c0-5,26.377-71.006,57.9-145c32.168-75,57.91-141.006,57.91-147.002
		c0-5-12.227,2.998-27.021,18.994c-57.9,62.002-193.662,151.006-201.387,133.008c-1.934-5,39.893-88.008,93.291-185
		c52.754-97.002,96.504-180,96.504-186.006c0-15-10.293-12.998-59.18,15c-50.195,27.998-63.057,31.006-63.057,12.002
		c0-12.998,108.73-242.002,151.836-320.996c12.227-22.002,21.875-43.008,21.875-48.008c0-23.994-150.547,129.004-257.354,261.006
		c-152.48,190-299.814,445-377.666,655.996c-63.691,172.002-85.576,265-85.576,367.002c0,60,1.943,72.002,16.084,92.998
		c8.369,14.004,18.662,25,22.52,25C3683.386,4519.997,3715.563,4504.997,3752.233,4486.003z M5783.396,4129.997
		c61.768-17.002,146.045-40,186.572-50.996c40.547-11.006,90.078-24.004,109.385-29.004c19.297-5.996,46.963-13.994,61.113-18.994
		c14.16-5,41.826-14.004,61.123-21.006c63.701-22.002,79.141-27.002,183.369-65c111.943-40.996,136.396-48.994,170.488-60
		c28.955-8.994,57.91-25.996,57.91-33.994c0-3.008-21.23-22.002-46.973-43.008c-52.754-40.996-63.691-43.994-281.152-56.992
		c-147.979-10-227.109-7.002-299.17,10.996c-145.41,35-220.684,99.004-279.229,237.002c-20.586,47.002-34.102,60.996-81.074,80
		c-17.363,7.998-43.75,18.994-57.9,25.996s-38.604,17.998-54.043,25c-46.318,19.004-19.951,30,73.34,30
		C5651.501,4159.997,5696.53,4152.995,5783.396,4129.997z M6557.38,2732.995c-4.502-1.992-12.227-1.992-16.084,0
		c-4.502,3.008-1.279,5,7.725,5S6561.247,2736.003,6557.38,2732.995z M6529.714,2721.003c0-5-7.715-12.002-17.363-15
		c-19.951-8.008-98.447-43.008-124.18-56.006c-9.004-5-37.959-18.994-64.336-30.996c-66.27-30-227.119-112.002-270.225-137.998
		c-81.064-48.008-271.504-206.006-298.525-248.008c-39.893-60.996-52.119-126.992-46.328-252.998
		c1.934-52.998,6.436-120,10.293-148.994c7.725-62.998,3.223-80-12.217-49.004c-15.449,31.006-48.252,142.998-57.91,197.998
		c-5.137,25-10.938,57.998-14.15,74.004c-11.582,57.002-7.07,123.994,10.938,165c24.443,57.998,111.943,150.996,214.883,227.998
		c48.906,37.002,191.094,112.998,321.699,172.998c26.377,12.002,55.332,26.006,64.336,30
		C6339.274,2699.001,6529.714,2746.003,6529.714,2721.003z M4494.694,2654.001c-1.924-2.998-7.725-4.004-12.217-1.006
		c-5.156,3.008-3.223,6.006,3.857,6.006C4493.405,2659.997,4497.272,2656.999,4494.694,2654.001z"/>
	<path fill="#893A31" d="M3145.515,719.997v-700h320.41c240.615,0,322.334,3.008,328.125,12.002
		c9.648,15,11.582,1387.998,1.924,1387.998c-3.213,0-7.715-7.998-9.639-16.992c-2.578-9.004-72.705-180-156.348-380
		c-132.539-316.006-169.219-393.008-169.219-354.004c0,7.002-219.385,542.002-275.361,670.996
		c-6.436,14.004-15.439,37.002-19.941,53.008c-5.146,15-11.582,26.992-14.795,26.992
		C3148.093,1419.997,3145.515,1104.997,3145.515,719.997z"/>
</g>
</svg>
