<?xml version="1.0" encoding="utf-8"?>
<!-- Generator: Adobe Illustrator 16.0.0, SVG Export Plug-In . SVG Version: 6.00 Build 0)  -->
<!DOCTYPE svg PUBLIC "-//W3C//DTD SVG 1.1//EN" "http://www.w3.org/Graphics/SVG/1.1/DTD/svg11.dtd">
<svg version="1.1" id="Layer_1" xmlns="http://www.w3.org/2000/svg" xmlns:xlink="http://www.w3.org/1999/xlink" x="0px" y="0px"
	 width="73.083px" height="59.116px" viewBox="34.3 0 73.083 59.116" enable-background="new 34.3 0 73.083 59.116"
	 xml:space="preserve">
<path fill="#F44250" d="M91.217,16.52c-2.076-0.664-3.148-0.44-5.326-0.683c-3.367-0.374-4.708-1.712-5.277-5.157
	c-0.318-1.923,0.059-4.739-0.755-6.482c-1.555-3.324-5.192-4.814-8.847-3.964c-3.085,0.72-5.653,3.856-5.795,7.077
	c-0.163,3.677,1.896,6.813,5.433,7.896c1.68,0.515,3.464,0.774,5.219,0.906c3.218,0.239,3.466,2.059,4.335,3.556
	c0.549,0.944,1.081,1.875,1.081,4.69s-0.535,3.746-1.081,4.69c-0.869,1.494-1.943,2.473-5.161,2.715
	c-1.755,0.131-3.543,0.391-5.219,0.906c-3.536,1.086-5.596,4.22-5.433,7.896c0.143,3.22,2.71,6.356,5.795,7.076
	c3.655,0.854,7.292-0.64,8.846-3.964c0.816-1.742,1.264-3.718,1.582-5.641c0.572-3.445,1.914-4.784,5.277-5.157
	c2.178-0.242,4.432,0,6.473-1.179c2.156-1.603,4.084-4.009,4.084-7.343C96.447,21.025,94.37,17.53,91.217,16.52z"/>
<path fill="#FFFFFF" d="M56.674,32.173c-4.244,0-7.706-3.528-7.706-7.853c0-4.326,3.462-7.854,7.706-7.854
	c4.244,0,7.706,3.528,7.706,7.854C64.38,28.642,60.915,32.173,56.674,32.173z"/>
<path fill="#FFFFFF" d="M42.479,48.133c-4.237-0.01-7.689-3.552-7.679-7.881c0.01-4.321,3.486-7.839,7.733-7.825
	c4.241,0.01,7.692,3.552,7.679,7.881C50.202,44.626,46.727,48.145,42.479,48.133z"/>
<path fill="#FFFFFF" d="M99.736,48.133c-4.25,0.024-7.74-3.479-7.764-7.794c-0.023-4.332,3.414-7.888,7.648-7.912
	c4.25-0.024,7.738,3.48,7.763,7.794C107.408,44.55,103.971,48.109,99.736,48.133z"/>
<path fill="#FFFFFF" d="M41.634,58.992c-0.27-0.287-0.309-0.637-0.424-1.81c-0.089-0.912-0.577-1.374-1.412-1.536
	c0.989-0.125,1.721-0.874,1.721-2.023c0-1.536-1.04-2.497-3.134-2.497H34.3v7.866h2.145v-2.61h1.451c0.732,0,1.131,0.201,1.195,1.1
	c0.064,0.813,0.167,1.299,0.334,1.511H41.634z M36.445,54.746v-1.922h1.554c0.925,0,1.388,0.338,1.388,0.975
	c0,0.724-0.463,0.947-1.388,0.947H36.445z"/>
<path fill="#FFFFFF" d="M46.396,57.007c-0.192,0.437-0.552,0.624-1.117,0.624c-0.629,0-1.143-0.324-1.194-1.012h4.019v-0.562
	c0-1.511-1.015-2.784-2.928-2.784c-1.785,0-3.121,1.262-3.121,3.022c0,1.772,1.31,2.846,3.147,2.846
	c1.515,0,2.568-0.711,2.864-1.984L46.396,57.007z M44.111,55.646c0.077-0.524,0.373-0.926,1.04-0.926
	c0.616,0,0.95,0.425,0.976,0.926H44.111z"/>
<path fill="#FFFFFF" d="M52.262,56.67c0,0.724-0.475,1.149-1.066,1.149c-0.347,0-0.578-0.188-0.578-0.475
	c0-0.363,0.295-0.513,0.796-0.613l0.848-0.148V56.67z M54.304,55.458c0-1.547-1.117-2.185-2.633-2.185
	c-1.721,0-2.659,0.85-2.838,2.072l1.926,0.126c0.089-0.413,0.321-0.699,0.783-0.699c0.501,0,0.719,0.274,0.719,0.735v0.089
	l-1.605,0.261c-1.246,0.212-2.042,0.675-2.042,1.748c0,0.949,0.732,1.511,1.85,1.511c0.912,0,1.567-0.336,1.901-0.986
	c0.193,0.637,0.745,0.986,1.451,0.986c0.591,0,1.002-0.162,1.298-0.361v-1.074c-0.167,0.063-0.296,0.087-0.463,0.087
	c-0.218,0-0.347-0.124-0.347-0.411V55.458z"/>
<path fill="#FFFFFF" d="M55.35,56.208c0,1.773,1.323,2.934,3.134,2.934c1.721,0,2.685-1.073,2.826-2.422l-1.708-0.125
	c-0.142,0.687-0.488,1.024-1.092,1.024c-0.629,0-1.065-0.413-1.065-1.411c0-0.999,0.436-1.412,1.065-1.412
	c0.604,0,0.95,0.326,1.092,1.013l1.708-0.113c-0.141-1.336-1.104-2.422-2.826-2.422C56.673,53.273,55.35,54.447,55.35,56.208z"/>
<path fill="#FFFFFF" d="M62.311,57.443c0,1.312,0.912,1.698,1.875,1.698c0.783,0,1.284-0.188,1.721-0.5v-1.31
	c-0.347,0.137-0.629,0.187-0.886,0.187c-0.424,0-0.656-0.187-0.656-0.662v-2.035h1.491v-1.397h-1.491v-1.535h-1.309l-0.193,0.724
	c-0.141,0.511-0.32,0.812-0.898,0.898l-0.424,0.063v1.248h0.771V57.443z"/>
<path fill="#FFFFFF" d="M76.401,58.992c-0.271-0.287-0.309-0.637-0.424-1.81c-0.091-0.912-0.578-1.374-1.413-1.536
	c0.988-0.125,1.722-0.874,1.722-2.023c0-1.536-1.041-2.497-3.135-2.497h-4.084v7.866h2.145v-2.61h1.452
	c0.731,0,1.13,0.201,1.194,1.1c0.063,0.813,0.167,1.299,0.333,1.511H76.401z M71.212,54.746v-1.922h1.554
	c0.924,0,1.387,0.338,1.387,0.975c0,0.724-0.463,0.947-1.387,0.947H71.212z"/>
<path fill="#FFFFFF" d="M78.917,56.208c0-0.837,0.308-1.412,1.04-1.412c0.719,0,1.039,0.575,1.039,1.412
	c0,0.836-0.32,1.411-1.039,1.411C79.225,57.619,78.917,57.044,78.917,56.208z M83.09,56.208c0-1.723-1.271-2.935-3.133-2.935
	c-1.876,0-3.135,1.212-3.135,2.935c0,1.735,1.259,2.934,3.135,2.934C81.818,59.142,83.09,57.943,83.09,56.208z"/>
<path fill="#FFFFFF" d="M87.692,56.158c0,0.849-0.257,1.398-0.912,1.398c-0.629,0-0.848-0.412-0.848-1.161v-2.972h-2.081v3.508
	c0,1.161,0.476,2.21,2.043,2.21c0.86,0,1.489-0.361,1.798-0.986v0.837h2.081v-5.568h-2.081V56.158z"/>
<path fill="#FFFFFF" d="M91.107,57.443c0,1.312,0.912,1.698,1.876,1.698c0.784,0,1.282-0.188,1.722-0.5v-1.31
	c-0.349,0.137-0.631,0.187-0.887,0.187c-0.425,0-0.656-0.187-0.656-0.662v-2.035h1.491v-1.397h-1.491v-1.535h-1.31l-0.191,0.724
	c-0.143,0.511-0.322,0.812-0.9,0.898l-0.423,0.063v1.248h0.77V57.443z"/>
<path fill="#FFFFFF" d="M99.537,57.007c-0.192,0.437-0.55,0.624-1.117,0.624c-0.628,0-1.142-0.324-1.192-1.012h4.019v-0.562
	c0-1.511-1.016-2.784-2.929-2.784c-1.785,0-3.12,1.262-3.12,3.022c0,1.772,1.31,2.846,3.146,2.846c1.516,0,2.569-0.711,2.864-1.984
	L99.537,57.007z M97.252,55.646c0.077-0.524,0.372-0.926,1.04-0.926c0.617,0,0.95,0.425,0.977,0.926H97.252z"/>
<path fill="#FFFFFF" d="M106.533,53.486c-0.14-0.112-0.449-0.213-0.796-0.213c-0.758,0-1.362,0.512-1.566,1.137v-0.986h-2.081v5.568
	h2.081v-2.547c0-0.938,0.475-1.286,1.245-1.286c0.398,0,0.707,0.075,0.989,0.236L106.533,53.486z"/>
</svg>
