<?xml version="1.0" encoding="utf-8"?>
<!-- Generator: Adobe Illustrator 16.0.0, SVG Export Plug-In . SVG Version: 6.00 Build 0)  -->
<!DOCTYPE svg PUBLIC "-//W3C//DTD SVG 1.1//EN" "http://www.w3.org/Graphics/SVG/1.1/DTD/svg11.dtd">
<svg version="1.1" id="Layer_1" xmlns="http://www.w3.org/2000/svg" xmlns:xlink="http://www.w3.org/1999/xlink" x="0px" y="0px"
	 width="400px" height="400px" viewBox="0 0 400 400" enable-background="new 0 0 400 400" xml:space="preserve">
<g transform="translate(0.000000,400.000000) scale(0.100000,-0.100000)">
	<path fill="#FFFFFF" d="M0,3813.005c0-315,27.998-747.002,61.001-968.008c145-962.998,476.997-1688.994,1023.999-2240.996
		c256.001-259.004,575-475.996,847.998-577.998l67.002-25l67.998,25c282.998,105.996,646.006,358.994,896.006,625.996
		c595,635.996,930,1489.004,1015.996,2587.998c15,190,25,750,14.004,750c-5,0-94.004-36.992-199.004-80.996
		c-225.996-95.996-559.004-209.004-705-239.004c-137.998-28.994-280.996-23.994-425,14.004s-357.998,110-522.998,175.996
		l-143.003,58.008l-126.997-53.008c-70-27.998-189.004-72.998-265-98.994C1270,3651.999,1106.001,3629.001,910,3669.997
		c-147.002,30-480,143.008-705,239.004c-103.999,44.004-192.998,80.996-197.002,80.996C2.998,3989.997,0,3909.997,0,3813.005z
		 M2175,3476.999c382.002-140.996,647.998-192.998,852.998-167.998c110,13.994,320,65.996,481.006,120
		c63.994,22.002,118.994,35.996,122.998,32.002c8.994-7.998-16.006-342.002-37.002-506.006
		c-47.998-368.994-129.004-705-245.996-1015c-64.004-168.994-207.002-462.002-294.004-600
		c-259.004-410-615.996-748.994-982.998-933.994L2000,369.997l-72.002,36.006c-367.998,185-725,525-983.999,935.996
		c-130,207.998-271.001,515-358.999,782.998c-72.998,226.006-145,557.002-180,827.998c-22.002,173.008-46.001,500.01-37.002,509.004
		c4.004,4.004,52.002-8.994,107.002-27.998c152.002-52.998,396.001-112.998,512.002-126.006
		c126.997-13.994,252.998-1.992,432.998,42.002c126.001,31.006,397.998,119.004,505,164.004c32.998,14.004,68.999,22.998,80,22.002
		C2015.996,3534.001,2092.998,3506.999,2175,3476.999z"/>
	<path fill="#FFFFFF" d="M1705,2876.003c-5-2.002-22.002-7.002-37.002-10c-36.997-8.008-85-51.006-110-100
		c-30.996-59.004-30.996-174.004-0.996-236.006c45-90.996,157.998-130,270.996-93.994l57.002,18.994l2.998,52.998l3.003,54.004
		L1855,2534.001c-50-37.998-120-44.004-158.999-12.998c-75,58.994-75,198.994,0,257.998c38.999,30.996,106.997,25,157.998-14.004
		l36.001-27.002v51.006c0,45.996-2.998,52.002-30,65.996C1832.002,2869.997,1726.001,2884.001,1705,2876.003z"/>
	<path fill="#FFFFFF" d="M1150,2649.997v-220h97.998c130,1.006,170,11.006,210,54.004c26.001,30,32.002,43.994,32.002,82.002
		c0,35.996-5,50.996-27.998,72.998c-15,15-33.003,30-41.001,32.002c-10,3.994-7.002,11.992,11.997,31.992
		c20,20,27.002,36.006,27.002,67.002c0,75-52.998,100-212.002,100H1150V2649.997z M1351.001,2766.003
		c18.999-40-3.003-66.006-56.001-66.006h-45v45v45h45C1332.998,2789.997,1342.002,2786.003,1351.001,2766.003z M1361.001,2619.997
		c12.998-7.002,18.999-20.996,18.999-45c0-47.002-22.002-65-81.001-65H1250v60v60h46.001
		C1321.001,2629.997,1350,2624.997,1361.001,2619.997z"/>
	<path fill="#FFFFFF" d="M2950,2806.003c0-39.004-2.998-46.006-20-46.006c-15.996,0-20-7.002-20-35s4.004-35,20-35
		c19.004,0,20-7.002,20-105s2.002-107.998,24.004-130c27.998-27.002,80.996-40,130.996-30.996c30.996,5.996,35,10,35,38.994
		c0,32.002-0.996,32.002-39.004,29.004c-25-2.998-41.992,0.996-46.992,10c-5,7.002-9.004,52.002-10,100.996l-1.006,87.002h49.004
		H3140v35v35h-49.004h-48.994l0.996,42.998l2.002,42.002l-47.002,2.998l-47.998,3.008V2806.003z"/>
	<path fill="#FFFFFF" d="M2705,2749.997c-47.002-23.994-45-23.994-45-5c0,11.006-12.002,15-50,15h-50v-225v-225h50h50v66.006
		c0,63.994,0.996,65,22.998,56.992c39.004-13.994,101.006-8.994,129.004,12.002c45,34.004,62.998,81.006,62.998,159.004
		c-0.996,82.002-20,127.998-65,150.996C2772.002,2774.997,2752.002,2774.001,2705,2749.997z M2760.996,2672.995
		c8.008-8.994,14.004-40,14.004-72.998c0-72.998-20.996-100-77.002-100H2660v89.004c0,62.002,4.004,90.996,12.998,93.994
		C2700,2694.997,2747.998,2689.001,2760.996,2672.995z"/>
	<path fill="#FFFFFF" d="M1950,2594.997v-165h50h50v114.004c0,127.002-0.996,125.996,82.002,125.996
		c35.996,0,37.002,1.006,40,41.006c2.998,37.998,7.002,28.994,62.002-116.006l58.994-155.996l-25.996-65l-25-64.004h52.002h52.998
		L2425,2522.995c42.998,116.006,80,218.008,82.998,225c2.998,8.008-10,12.002-45,12.002h-48.994l-33.008-100
		c-17.998-55-33.994-100-35.996-100s-19.004,45-37.002,101.006L2275,2761.999l-82.002-4.004
		c-65.996-1.992-87.002-6.992-112.002-25.996L2050,2709.001v25.996c0,22.998-2.998,25-50,25h-50V2594.997z"/>
	<path fill="#FFFFFF" d="M2197.002,1957.995c-21.006-5.996-52.998-25-72.002-42.998c-30.996-28.994-35-37.998-35-82.998
		c0-82.002,32.002-110,162.002-145.996c63.994-18.008,82.002-44.004,52.002-77.002c-27.002-30-100-26.006-168.008,10l-55.996,30
		v-52.998c0-52.002,0-53.008,37.998-64.004c72.002-20,105-24.004,157.998-17.002c175,22.002,208.008,222.002,43.008,265
		c-24.004,6.006-61.006,16.006-81.006,21.006c-32.998,7.998-37.998,13.994-37.998,38.994c0,55,82.002,67.998,164.004,26.006
		l46.992-24.004l-2.998,52.002l-2.998,50.996l-50,12.002C2294.004,1971.003,2247.002,1971.003,2197.002,1957.995z"/>
	<path fill="#FFFFFF" d="M1240,1739.997v-220h50h50v100v100h80h80v-100v-100h50h50v220v220h-50h-50v-80v-80h-80h-80v80v80h-50h-50
		V1739.997z"/>
	<path fill="#FFFFFF" d="M1795,1947.995c-2.998-6.992-36.001-105.996-73.999-220l-70-207.998H1705h52.998l11.001,45l11.001,45
		h73.999h73.003l12.998-45l12.998-45h52.998h52.002l-71.997,217.998l-73.003,217.002l-55.996,2.998
		C1817.002,1959.997,1797.998,1956.999,1795,1947.995z M1880,1764.001c11.001-36.006,20-67.998,20-70s-20-4.004-45-4.004
		s-45,4.004-45,7.998c0,5,7.002,31.006,16.001,58.008c8.999,26.992,16.997,55,20,61.992
		C1852.998,1841.003,1858.999,1829.997,1880,1764.001z"/>
	<path fill="#FFFFFF" d="M2490,1739.997v-220h50h50v100v100h80h80v-100v-100h50h50v220v220h-50h-50v-80v-80h-80h-80v80v80h-50h-50
		V1739.997z"/>
</g>
</svg>
