<?xml version="1.0" encoding="utf-8"?>
<!-- Generator: Adobe Illustrator 16.0.0, SVG Export Plug-In . SVG Version: 6.00 Build 0)  -->
<!DOCTYPE svg PUBLIC "-//W3C//DTD SVG 1.1//EN" "http://www.w3.org/Graphics/SVG/1.1/DTD/svg11.dtd">
<svg version="1.1" id="Layer_1" xmlns="http://www.w3.org/2000/svg" xmlns:xlink="http://www.w3.org/1999/xlink" x="0px" y="0px"
	 width="800px" height="800px" viewBox="0 0 800 800" enable-background="new 0 0 800 800" xml:space="preserve">
<path fill="#704C9F" d="M392.333,374.667h-60.467V273.4H403.6c39,0,61.134,17.399,61.134,48.866c0,33.601-25.767,52.4-72.467,52.4
	H392.333z M403.134,414.867H331.9v111.6h74.366c48.634,0,74.4-19.5,74.4-56.166C480.667,433.634,454.167,414.867,403.134,414.867
	L403.134,414.867z M800,379.667v40.6c-37.6,3.601-60.566,31.467-74.2,75.601c-13.566,43.967-15.434,97.9-14,139.533
	c1.5,43.333-32.267,83.333-77.899,83.333H166.167c-45.667,0-79.433-40-77.9-83.333c1.434-41.633-0.433-95.566-14-139.533
	C60.6,451.733,37.6,423.867,0,420.266v-40.6c37.6-3.6,60.633-31.467,74.233-75.6c13.6-43.967,15.467-97.9,14-139.534
	C86.733,121.2,120.5,81.2,166.167,81.2H633.9c45.666,0,79.399,40,77.899,83.333c-1.434,41.634,0.434,95.567,14,139.534
	C739.434,348.2,762.4,376.067,800,379.667z M535.767,473.567c0-45.134-31.767-77.768-78.934-82.934v-1.9
	C491.5,383.1,518.7,350.9,518.7,314.967c0-51.233-40.434-84.6-102.066-84.6H277.967v339.066h139.366
	C491.267,569.433,535.767,533.233,535.767,473.567z"/>
</svg>
