<?xml version="1.0" encoding="utf-8"?>
<!-- Generator: Adobe Illustrator 16.0.0, SVG Export Plug-In . SVG Version: 6.00 Build 0)  -->
<!DOCTYPE svg PUBLIC "-//W3C//DTD SVG 1.1//EN" "http://www.w3.org/Graphics/SVG/1.1/DTD/svg11.dtd">
<svg version="1.1" id="Layer_1" xmlns="http://www.w3.org/2000/svg" xmlns:xlink="http://www.w3.org/1999/xlink" x="0px" y="0px"
	 width="59.214px" height="96.704px" viewBox="0.093 0 59.214 96.704" enable-background="new 0.093 0 59.214 96.704"
	 xml:space="preserve">
<path fill="#E8EFF9" d="M0.481,96.547c-0.105,0-0.199-0.036-0.283-0.11c-0.073-0.083-0.11-0.178-0.11-0.282V85.956
	c0-0.115,0.037-0.21,0.11-0.283c0.073-0.084,0.168-0.125,0.283-0.125h7.307c0.115,0,0.209,0.041,0.283,0.125
	c0.083,0.073,0.126,0.168,0.126,0.283v1.666c0,0.114-0.042,0.209-0.126,0.283c-0.073,0.073-0.168,0.108-0.283,0.108H2.979v2.186
	h4.494c0.115,0,0.21,0.042,0.283,0.125c0.084,0.074,0.126,0.168,0.126,0.283v1.666c0,0.115-0.042,0.209-0.126,0.282
	c-0.073,0.073-0.167,0.109-0.283,0.109H2.979v3.489c0,0.104-0.037,0.199-0.109,0.282c-0.074,0.074-0.168,0.11-0.284,0.11H0.481z
	 M14.328,96.704c-1.488,0-2.661-0.361-3.52-1.084c-0.859-0.723-1.314-1.786-1.367-3.19c-0.011-0.293-0.016-0.744-0.016-1.351
	c0-0.607,0.005-1.063,0.016-1.368c0.042-1.382,0.498-2.445,1.367-3.189c0.88-0.754,2.053-1.131,3.52-1.131
	c1.456,0,2.619,0.377,3.488,1.131c0.88,0.744,1.341,1.808,1.383,3.189c0.021,0.608,0.031,1.063,0.031,1.368
	c0,0.313-0.01,0.765-0.031,1.351c-0.052,1.404-0.508,2.468-1.367,3.19C16.984,96.343,15.815,96.704,14.328,96.704z M14.328,94.347
	c0.545,0,0.979-0.162,1.304-0.486c0.325-0.335,0.498-0.844,0.519-1.524c0.021-0.607,0.031-1.043,0.031-1.304
	c0-0.263-0.01-0.687-0.031-1.273c-0.021-0.681-0.194-1.185-0.519-1.509c-0.325-0.335-0.759-0.502-1.304-0.502
	c-0.555,0-0.996,0.167-1.32,0.502c-0.325,0.324-0.498,0.828-0.519,1.509c-0.01,0.293-0.016,0.718-0.016,1.273
	c0,0.565,0.006,0.999,0.016,1.304c0.021,0.681,0.194,1.189,0.519,1.524C13.333,94.185,13.773,94.347,14.328,94.347z M21.396,96.547
	c-0.104,0-0.199-0.036-0.283-0.11c-0.073-0.083-0.11-0.178-0.11-0.282V85.956c0-0.115,0.037-0.21,0.11-0.283
	c0.073-0.084,0.167-0.125,0.283-0.125h4.321c1.383,0,2.462,0.313,3.237,0.942c0.786,0.629,1.179,1.514,1.179,2.655
	c0,0.733-0.173,1.356-0.518,1.87c-0.335,0.514-0.802,0.911-1.399,1.193l2.121,3.835c0.032,0.063,0.047,0.12,0.047,0.174
	c0,0.083-0.031,0.161-0.094,0.235c-0.063,0.063-0.142,0.094-0.236,0.094h-2.215c-0.304,0-0.519-0.141-0.645-0.424l-1.729-3.41
	h-1.508v3.441c0,0.115-0.042,0.209-0.126,0.282c-0.073,0.074-0.167,0.11-0.283,0.11H21.396z M25.703,90.403
	c0.45,0,0.791-0.11,1.021-0.33c0.241-0.23,0.361-0.545,0.361-0.943c0-0.397-0.121-0.717-0.361-0.958
	c-0.23-0.241-0.571-0.361-1.021-0.361h-1.745v2.593H25.703z M32.338,96.547c-0.115,0-0.215-0.036-0.298-0.11
	c-0.073-0.073-0.11-0.167-0.11-0.282V85.956c0-0.115,0.037-0.21,0.11-0.283c0.083-0.084,0.184-0.125,0.298-0.125h1.776
	c0.262,0,0.451,0.115,0.566,0.346l2.702,4.839l2.718-4.839c0.115-0.23,0.304-0.346,0.566-0.346h1.775
	c0.116,0,0.209,0.041,0.283,0.125c0.084,0.073,0.126,0.168,0.126,0.283v10.198c0,0.115-0.042,0.209-0.126,0.282
	c-0.073,0.074-0.167,0.11-0.283,0.11h-1.996c-0.105,0-0.199-0.036-0.283-0.11c-0.074-0.083-0.111-0.178-0.111-0.282v-5.72
	l-1.696,3.111c-0.136,0.241-0.319,0.36-0.55,0.36h-0.848c-0.209,0-0.393-0.119-0.55-0.36l-1.682-3.111v5.72
	c0,0.115-0.042,0.209-0.125,0.282c-0.073,0.074-0.167,0.11-0.283,0.11H32.338z M45.381,96.547c-0.105,0-0.199-0.036-0.283-0.11
	c-0.073-0.083-0.11-0.178-0.11-0.282V85.94c0-0.115,0.037-0.21,0.11-0.282c0.084-0.074,0.178-0.11,0.283-0.11h2.247
	c0.115,0,0.21,0.036,0.283,0.11c0.073,0.072,0.11,0.167,0.11,0.282v10.214c0,0.104-0.037,0.199-0.11,0.282
	c-0.073,0.074-0.167,0.11-0.283,0.11H45.381z M50.552,96.547c-0.104,0-0.199-0.036-0.283-0.11c-0.074-0.083-0.11-0.178-0.11-0.282
	V85.956c0-0.115,0.036-0.21,0.11-0.283c0.073-0.084,0.168-0.125,0.283-0.125h2.105c0.115,0,0.209,0.041,0.283,0.125
	c0.073,0.073,0.109,0.168,0.109,0.283v3.426l2.782-3.521c0.115-0.209,0.319-0.313,0.612-0.313h2.404c0.083,0,0.157,0.036,0.22,0.11
	c0.073,0.063,0.109,0.136,0.109,0.22c0,0.083-0.021,0.146-0.063,0.188l-3.661,4.745l3.959,5.217
	c0.042,0.042,0.064,0.104,0.064,0.189c0,0.083-0.038,0.161-0.11,0.235c-0.063,0.063-0.141,0.094-0.236,0.094h-2.467
	c-0.168,0-0.304-0.031-0.408-0.094c-0.105-0.074-0.179-0.147-0.22-0.22l-2.986-3.835v3.756c0,0.104-0.037,0.199-0.109,0.282
	c-0.074,0.074-0.168,0.11-0.283,0.11H50.552z"/>
<path fill="#E8EFF9" d="M38.869,0l9.694,5.575L10.387,27.528l-9.694-5.575L38.869,0z"/>
<path fill="#E8EFF9" d="M48.954,6.745L11.018,28.551l-0.001,11.032l37.936-21.805L48.954,6.745z"/>
<path fill="#E8EFF9" d="M33.699,28.276L11.098,41.267L11.096,52.3l22.601-12.991L33.699,28.276z"/>
<path fill="#E8EFF9" d="M25.035,45.717L11.044,53.76l-0.001,11.032l13.99-8.042L25.035,45.717z"/>
<path fill="#E8EFF9" d="M0.004,23.017l9.751,5.605L9.751,39.657L0,34.052L0.004,23.017z"/>
<path fill="#E8EFF9" d="M0.097,35.657l9.632,5.537L9.726,52.229l-9.633-5.535L0.097,35.657z"/>
<path fill="#E8EFF9" d="M0.092,48.221l9.636,5.539L9.724,65.523l-9.636-5.539L0.092,48.221z"/>
<path fill="#E8EFF9" d="M21.564,84l-9.694-5.574l37.743-21.705l9.694,5.574L21.564,84z"/>
<path fill="#E8EFF9" d="M11.102,77.471l37.879-21.771l0.001-11.033L11.103,66.439L11.102,77.471z"/>
<path fill="#E8EFF9" d="M26.3,55.974l22.601-12.991l0.001-11.033L26.301,44.941L26.3,55.974z"/>
<path fill="#E8EFF9" d="M34.964,38.532l13.991-8.042l0.001-11.033l-13.99,8.042L34.964,38.532z"/>
<path fill="#E8EFF9" d="M59.996,61.306l-9.751-5.604l0.004-11.035L60,50.271L59.996,61.306z"/>
<path fill="#E8EFF9" d="M59.904,48.595l-9.633-5.536l0.003-11.036l9.633,5.537L59.904,48.595z"/>
<path fill="#E8EFF9" d="M59.908,36.031l-9.636-5.539l0.004-11.552l9.636,5.539L59.908,36.031z"/>
</svg>
