<?xml version="1.0" encoding="utf-8"?>
<!-- Generator: Adobe Illustrator 16.0.0, SVG Export Plug-In . SVG Version: 6.00 Build 0)  -->
<!DOCTYPE svg PUBLIC "-//W3C//DTD SVG 1.1//EN" "http://www.w3.org/Graphics/SVG/1.1/DTD/svg11.dtd">
<svg version="1.1" id="Layer_1" xmlns="http://www.w3.org/2000/svg" xmlns:xlink="http://www.w3.org/1999/xlink" x="0px" y="0px"
	 width="800px" height="800px" viewBox="0 0 800 800" enable-background="new 0 0 800 800" xml:space="preserve">
<title>github [#142]</title>
<desc>Created with Sketch.</desc>
<g id="Page-1">
	<g id="Dribbble-Light-Preview" transform="translate(-140.000000, -7559.000000)">
		<g id="icons" transform="translate(56.000000, 160.000000)">
			<path id="github-_x5B__x23_142_x5D_" fill="#FFFFFF" d="M484,7399.002c220.92,0,400,183.594,400,410.125
				c0,181.156-114.479,334.844-273.32,389.125c-20.279,4.031-27.479-8.75-27.479-19.688c0-13.531,0.479-57.688,0.479-112.563
				c0-38.219-12.8-63.188-27.159-75.938c89.08-10.156,182.68-44.844,182.68-202.344c0-44.781-15.521-81.344-41.2-110.094
				c4.16-10.344,17.88-52.063-3.92-108.563c0,0-33.521-10.969-109.88,42.063c-31.96-9.063-66.2-13.656-100.2-13.813
				c-34,0.156-68.2,4.75-100.12,13.813c-76.44-53.031-110.04-42.063-110.04-42.063c-21.72,56.5-8,98.219-3.88,108.563
				c-25.56,28.75-41.2,65.313-41.2,110.094c0,157.125,93.4,192.313,182.24,202.688c-11.44,10.219-21.8,28.313-25.399,54.813
				c-22.801,10.5-80.721,28.625-116.4-34.063c0,0-21.16-39.406-61.32-42.281c0,0-39-0.531-2.72,24.938c0,0,26.2,12.594,44.4,60
				c0,0,23.48,73.188,134.76,48.375c0.2,34.281,0.56,66.625,0.56,76.375c0,10.813-7.36,23.531-27.32,19.719
				C198.6,8144.064,84,7990.314,84,7809.127C84,7582.596,263.12,7399.002,484,7399.002"/>
		</g>
	</g>
</g>
</svg>
